<?xml version="1.0" encoding="utf-8"?>
<!-- Generator: Adobe Illustrator 26.0.0, SVG Export Plug-In . SVG Version: 6.00 Build 0)  -->
<svg version="1.1" id="レイヤー_1" xmlns="http://www.w3.org/2000/svg" xmlns:xlink="http://www.w3.org/1999/xlink" x="0px"
	 y="0px" viewBox="0 0 300 33.5" style="enable-background:new 0 0 300 33.5;" xml:space="preserve">
<style type="text/css">
	.st0{fill:#ffffff;}
	.st1{fill:none;stroke:#231815;stroke-width:0.75;stroke-miterlimit:10;}
</style>
<g id="レイヤー_2_00000116197696075521863390000015755625114347261369_">
	<g id="レイヤー_1-2">
		<g>
			<path class="st0" d="M9.4,16.4c-0.8,0.9-1.7,1.8-2.7,2.5v4.8c1.3-0.4,2.6-0.7,4-1.1l-0.1,1.2c-2.3,0.7-4.6,1.2-7,1.8
				c0,0.1-0.1,0.2-0.2,0.2c-0.1,0-0.1,0-0.1-0.1l-0.6-1.3l2.6-0.5v-4.2C4,20.7,2.5,21.4,0.9,22L0,21.1c2.6-0.8,5.9-2.6,7.6-4.8H0.7
				v-1h7.6v-1.7H3.1v-1h5.2v-1.9H1.6v-1h6.7V7.6c0.5,0,1,0.1,1.6,0.1c0.1,0,0.1,0.1,0.1,0.1C10,8,9.8,8,9.7,8.1v1.7h6.9v1H9.7v1.9
				h5.4v1H9.7v1.8h7.7v1L9.4,16.4z M16.9,25.7c-3.1-1.2-5.6-3.6-7-6.6c1.7-0.5,3.3-1.3,4.9-2.1c0.4,0.4,0.7,0.8,1.1,1.2
				c0,0.1-0.1,0.1-0.2,0.1c-0.1,0-0.1,0-0.2-0.1c-1.3,0.4-2.6,0.9-3.9,1.2c1.4,2.5,3.7,4.4,6.4,5.2L16.9,25.7z"/>
			<path class="st0" d="M39.3,20.7c-2.9-1.2-5.5-3.1-7.5-5.6h-2.3c-1.8,2.3-4.2,4.1-6.9,5.3l-0.9-0.9c2.3-0.9,4.4-2.4,6.1-4.2h-5.4
				v-1.1h6c0.4-0.6,0.8-1.2,1.1-1.8l-5.3,0.2l-0.4-1.1c0.5,0,1.1,0,1.6,0c0.4,0,0.8-0.2,1.1-0.5c1.1-1,2.1-2.2,2.9-3.5
				c0.6,0.2,1.1,0.4,1.7,0.6c0.1,0,0.2,0.1,0.2,0.2s-0.3,0.2-0.4,0.2c-1.1,1.1-2.3,2.1-3.5,3.1c2.5-0.1,5.1-0.2,7.6-0.2
				c-0.7-0.5-1.3-1-2-1.5l1.2-0.7c1.3,0.9,2.6,1.9,3.7,3l-1,0.8c-0.3-0.2-0.6-0.5-0.9-0.8c-1.6,0.1-3.2,0.1-4.8,0.2
				c-0.4,0.6-0.8,1.2-1.2,1.8h9.5v1.1h-5.9c1.4,2.1,4.4,3.6,6.7,4.4L39.3,20.7z M36.2,22.2c-0.1,0-0.1,0-0.2-0.1
				c-3.1,2.2-6.7,3.5-10.4,3.9l-0.9-1c3.8-0.2,7.5-1.6,10.4-4.1c0.4,0.3,0.8,0.6,1.2,1c0,0,0,0.1,0,0.1
				C36.4,22.2,36.3,22.2,36.2,22.2z M31.8,17.9c-1.8,1.5-3.9,2.7-6.1,3.4L25,20.6c2.3-0.7,4.3-2,6-3.7c0.4,0.3,0.8,0.6,1.2,1
				C32.1,18,31.9,18,31.8,17.9z M34,20c-0.1,0-0.1,0-0.2,0c-2.4,1.8-5.1,3.1-8,3.7l-0.7-0.9c2.9-0.6,5.7-1.9,7.9-3.9
				c0.4,0.3,0.8,0.6,1.1,1C34.1,20,34,20,34,20z"/>
			<path class="st0" d="M61.1,25.3c-1.2,0.1-2.5,0.1-3.7,0.1c-3.9,0-7.2-0.2-10.6-2.4c-0.4,0.9-1,1.7-1.7,2.4l-1-0.6
				c2.1-2.2,2.4-5.4,2.5-8.3h-2.7v-1.1h4.1c0,2.1-0.3,4.2-0.8,6.3c0.9,0.7,2,1.3,3.1,1.8c2,0.7,4.1,0.9,6.3,0.9
				c1.7,0,3.4-0.1,5.1-0.3L61.1,25.3z M47.3,11.1c-0.9-0.7-1.9-1.3-2.9-1.9c0.3-0.4,0.6-0.8,1-1.2c1,0.6,1.9,1.3,2.7,2.1
				C47.9,10.6,47.6,10.9,47.3,11.1z M55.5,11.6c-0.4,0.6-0.8,1.2-1.3,1.8h5.3v9h-9.1v-9h2.7c0.3-0.6,0.6-1.2,0.8-1.8h-4.7v-1h6.7
				c0.5-1,0.9-2,1.2-3c0.5,0.2,1.1,0.3,1.6,0.6c0.1,0,0.1,0.1,0.1,0.1c0,0.1-0.2,0.2-0.3,0.1c-0.5,0.7-1,1.4-1.6,2.1h4.3v1
				L55.5,11.6z M52.6,10.5C52,9.7,51.5,9,50.9,8.3c0.5-0.3,0.9-0.6,1.4-0.8c0.5,0.8,0.9,1.6,1.3,2.4C53.2,10.1,52.9,10.3,52.6,10.5z
				 M58.2,14.3h-6.6V16h6.5L58.2,14.3z M58.2,16.9h-6.6v1.7h6.5L58.2,16.9z M58.2,19.5h-6.6v1.9h6.5L58.2,19.5z"/>
			<path class="st0" d="M73.6,12.2c-0.8,1.4-1.8,2.7-2.8,3.9h4v-2.5c0.5,0,1,0,1.4,0.1c0.1,0,0.2,0,0.2,0.1S76.2,14,76.1,14v2.1h5.2
				v4.3c0,2.1-0.6,3.6-2.9,4l-0.7-0.9c1.4-0.1,2.4-1.4,2.3-2.8c0,0,0-0.1,0-0.1V17h-3.9v8.6h-1.3V17h-3.8v7.2h-1.3v-6.9
				c-1.1,1.2-2.3,2.2-3.6,3l-1-0.8c2.9-1.8,5.2-4.4,6.8-7.4h-5.7V11h6.2c0.5-1.1,0.9-2.1,1.3-3.3l1.7,0.5c0.1,0,0.1,0.1,0.1,0.1
				c0,0.2-0.3,0.3-0.4,0.3c-0.3,0.8-0.7,1.6-1.1,2.3h9v1.2H73.6z"/>
			<path class="st0" d="M88.6,25.4V8.8h15.7v16.5H88.6z M102.9,9.9h-13v14.4h13V9.9z M99,15.1v4.6c0,2.2-0.5,3.4-2.8,3.8l-0.8-0.9
				c1.8-0.4,2.3-1,2.3-2.9v-4.7H91V14h6.7v-2.9c0.5,0,1,0.1,1.4,0.1c0.1,0,0.2,0,0.2,0.1s-0.2,0.2-0.3,0.2V14h2.9v1.1L99,15.1z
				 M94.9,20.2c-0.8-1.1-1.7-2.1-2.7-3c0.4-0.3,0.8-0.6,1.1-0.9c0.9,1,1.8,2,2.6,3.1L94.9,20.2z"/>
			<path class="st0" d="M112.4,11.3c0,0.9,0,1.8,0,2.7c0,3.7,0,8.4-2.5,11.5l-1.1-0.8c2.1-2.7,2.2-6.4,2.2-9.6
				c0-1.6-0.1-3.2-0.2-4.8h6.9V7.8l1.6,0.1c0.1,0,0.2,0,0.2,0.1c0,0.1-0.2,0.2-0.2,0.2v2h7.2v1.2L112.4,11.3z M119.8,15.8v3h4.9v6.6
				h-10.6v-6.6h4.3v-6.9l1.5,0.1c0.1,0,0.2,0.1,0.2,0.1s-0.2,0.2-0.3,0.2v2.3h6.6v1.1H119.8z M123.2,19.8h-7.8v4.5h7.8V19.8z"/>
			<path class="st0" d="M131.9,25.9c-1.5,0-2.7-1.2-2.7-2.8c0-1.5,1.2-2.7,2.8-2.7c1.5,0,2.7,1.2,2.7,2.8
				C134.6,24.7,133.4,25.9,131.9,25.9C131.9,25.9,131.9,25.9,131.9,25.9z M131.9,21.3c-1,0-1.8,0.8-1.8,1.9c0,1,0.8,1.8,1.9,1.8
				c1,0,1.8-0.8,1.8-1.8C133.8,22.2,132.9,21.3,131.9,21.3z"/>
			<line class="st1" x1="152.4" y1="0" x2="152.4" y2="33.5"/>
		</g>
		<path class="st0" d="M293.4,14.3v7.4h1.5V16c0.2-0.2,0.3-0.3,0.5-0.5c0.2-0.1,0.4-0.2,0.6-0.4c0.2-0.1,0.4-0.2,0.5-0.2
			c0.2-0.1,0.3-0.1,0.5-0.1c0.3,0,0.7,0.1,0.9,0.4c0.1,0.1,0.2,0.3,0.3,0.5c0.1,0.2,0.1,0.4,0.1,0.7v5.3h1.5v-5.5
			c0-0.3-0.1-0.6-0.2-0.9c-0.1-0.3-0.2-0.5-0.4-0.7c-0.2-0.2-0.4-0.4-0.6-0.5c-0.2-0.1-0.5-0.2-0.8-0.2c-0.5,0-1.1,0.1-1.5,0.4
			c-0.6,0.3-1.1,0.7-1.5,1.2v-1.6h-0.4L293.4,14.3z M280,14l3.4,7.8h0.5l2.1-5l2.1,5h0.5l3.2-7.8h-0.7l-2.2,5.7l-2.4-5.7l-2.4,5.7
			l-2.5-5.7H280z M274.2,21c-0.3-0.2-0.6-0.5-0.8-0.9c-0.2-0.4-0.4-0.8-0.5-1.3c-0.1-0.5-0.2-1.1-0.2-1.6c0-0.4,0.1-0.7,0.2-1.1
			c0.1-0.3,0.3-0.6,0.4-0.9c0.2-0.2,0.4-0.4,0.6-0.6c0.2-0.1,0.5-0.2,0.7-0.2c0.4,0,0.9,0.1,1.3,0.3c0.3,0.2,0.6,0.5,0.9,0.9
			c0.2,0.4,0.4,0.8,0.5,1.3c0.1,0.5,0.1,1,0.1,1.6c0,0.4,0,0.7-0.2,1.1c-0.1,0.3-0.2,0.6-0.4,0.9c-0.2,0.3-0.4,0.5-0.7,0.6
			c-0.2,0.2-0.5,0.2-0.8,0.2C274.9,21.3,274.5,21.2,274.2,21z M276.7,21.6c0.5-0.2,0.9-0.5,1.3-0.9c0.4-0.4,0.7-0.8,0.8-1.3
			c0.2-0.5,0.3-1.1,0.3-1.7c0-0.5-0.1-1-0.3-1.5c-0.2-0.4-0.5-0.8-0.8-1.2c-0.4-0.3-0.8-0.6-1.3-0.8c-0.5-0.2-1.1-0.3-1.6-0.3
			c-0.6,0-1.1,0.1-1.6,0.3c-0.5,0.2-0.9,0.5-1.3,0.9c-0.4,0.4-0.7,0.8-0.8,1.3c-0.2,0.5-0.3,1.1-0.3,1.6c0,0.5,0.1,1,0.3,1.5
			c0.2,0.5,0.5,0.9,0.8,1.3c0.4,0.4,0.8,0.6,1.3,0.8c0.5,0.2,1.1,0.3,1.6,0.3C275.6,21.9,276.2,21.8,276.7,21.6z M261.4,12.5h1.8
			c0.6,0,1.1,0.1,1.6,0.3c0.5,0.2,0.9,0.5,1.3,0.9c0.4,0.4,0.7,0.8,0.9,1.3c0.2,0.5,0.3,1.1,0.3,1.7c0,0.6-0.1,1.3-0.3,1.9
			c-0.2,0.5-0.5,1-0.9,1.4c-0.4,0.4-0.8,0.7-1.3,0.8c-0.5,0.2-1,0.3-1.6,0.3h-1.8L261.4,12.5z M259.7,21.7h3.7
			c0.8,0,1.7-0.1,2.5-0.4c0.7-0.2,1.3-0.6,1.8-1.1c0.5-0.4,0.9-1,1.1-1.6c0.3-0.6,0.4-1.3,0.4-2c0-0.7-0.1-1.4-0.4-2
			c-0.3-0.6-0.7-1.2-1.3-1.7c-0.5-0.4-1.2-0.8-1.9-0.9c-0.9-0.2-1.8-0.3-2.7-0.3h-3.3V21.7z M248.4,16.5c0-0.3,0.1-0.6,0.2-0.8
			c0.1-0.2,0.2-0.5,0.4-0.7c0.2-0.2,0.3-0.3,0.6-0.4c0.2-0.1,0.4-0.2,0.7-0.2c0.3,0,0.5,0,0.8,0.1c0.2,0.1,0.4,0.3,0.6,0.4
			c0.2,0.2,0.3,0.4,0.4,0.7c0.1,0.3,0.2,0.5,0.2,0.8L248.4,16.5z M251.9,21.7c0.8-0.3,1.5-0.8,1.9-1.5c0.2-0.3,0.4-0.7,0.5-1.1
			l-0.4-0.2c-0.1,0.3-0.2,0.5-0.4,0.7c-0.2,0.2-0.4,0.4-0.6,0.6c-0.3,0.2-0.5,0.3-0.8,0.4c-0.3,0.1-0.6,0.2-1,0.2
			c-0.4,0-0.8-0.1-1.1-0.3c-0.3-0.2-0.6-0.4-0.9-0.8c-0.3-0.4-0.5-0.7-0.6-1.2c-0.1-0.5-0.2-1-0.2-1.4h5.8c0-0.4-0.1-0.8-0.2-1.2
			c-0.2-0.4-0.4-0.7-0.7-1c-0.3-0.3-0.7-0.5-1.1-0.7c-1-0.4-2-0.4-3,0.1c-0.5,0.2-0.9,0.5-1.2,0.9c-0.3,0.4-0.6,0.9-0.8,1.4
			c-0.2,0.6-0.3,1.1-0.3,1.7c0,0.5,0.1,1,0.3,1.5c0.2,0.4,0.5,0.8,0.8,1.2c0.3,0.3,0.7,0.6,1.2,0.8c0.5,0.2,1,0.3,1.5,0.3
			C251.1,21.9,251.5,21.8,251.9,21.7L251.9,21.7z M244.7,10.1h-0.4l-1.1,0.4v11.2h1.5V10.1z M240.5,15.3c-0.1-0.2-0.2-0.4-0.4-0.6
			c-0.2-0.2-0.4-0.3-0.6-0.5c-0.2-0.1-0.5-0.2-0.8-0.3c-0.3-0.1-0.6-0.1-0.9-0.1c-0.4,0-0.7,0-1.1,0.2c-0.3,0.1-0.7,0.2-1,0.4
			c-0.3,0.2-0.6,0.4-0.8,0.7c-0.2,0.3-0.5,0.5-0.6,0.9c-0.2,0.3-0.3,0.7-0.4,1c-0.1,0.4-0.2,0.8-0.2,1.2c0,1,0.4,2,1.1,2.7
			c0.3,0.3,0.7,0.6,1.2,0.8c0.4,0.2,0.9,0.3,1.4,0.3c0.4,0,0.8-0.1,1.2-0.2c0.4-0.1,0.7-0.3,1-0.6c0.3-0.3,0.6-0.6,0.8-1
			c0.2-0.4,0.4-0.9,0.5-1.3l-0.5-0.2c-0.1,0.3-0.2,0.5-0.4,0.8c-0.1,0.2-0.3,0.5-0.5,0.7c-0.2,0.2-0.4,0.4-0.7,0.5
			c-0.3,0.1-0.6,0.2-0.9,0.2c-0.4,0-0.8-0.1-1.1-0.3c-0.3-0.2-0.6-0.5-0.9-0.8c-0.2-0.4-0.4-0.8-0.5-1.2c-0.1-0.5-0.2-0.9-0.2-1.4
			c0-0.3,0.1-0.7,0.2-1c0.1-0.3,0.2-0.6,0.4-0.9c0.2-0.2,0.4-0.4,0.7-0.6c0.3-0.1,0.6-0.2,0.9-0.2c0.2,0,0.5,0.1,0.7,0.2
			c0.2,0.1,0.4,0.2,0.5,0.4c0.1,0.2,0.3,0.4,0.4,0.6c0.1,0.2,0.2,0.4,0.2,0.6L240.5,15.3z M225.1,25c0.1,0.1,0.3,0.2,0.4,0.2
			c0.2,0.1,0.3,0.1,0.5,0.1c0.3,0,0.5,0,0.7-0.1c0.3-0.1,0.5-0.2,0.7-0.4c0.3-0.2,0.5-0.4,0.7-0.7c0.2-0.3,0.4-0.6,0.6-1l3.9-9.1
			H232l-2.4,5.6l-3-5.6h-1.7l4,7.4l-0.5,1.2c-0.1,0.2-0.1,0.3-0.2,0.5c-0.1,0.2-0.2,0.3-0.3,0.4c-0.1,0.1-0.2,0.3-0.4,0.3
			c-0.1,0.1-0.3,0.1-0.4,0.1c-0.1,0-0.2,0-0.4,0l-0.3-0.1l-0.2-0.1l-0.2-0.1L225.1,25z M215.9,14.8c0.2-0.5,0.5-1,0.9-1.4
			c0.4-0.4,0.8-0.7,1.3-0.9c0.5-0.2,1.1-0.3,1.6-0.3c0.6,0,1.3,0.2,1.8,0.6c0.6,0.5,1.1,1.1,1.4,1.8l0.7-0.5c-0.2-0.3-0.5-0.7-0.7-1
			c-0.3-0.3-0.6-0.6-1-0.8c-0.4-0.2-0.8-0.4-1.2-0.6c-0.5-0.1-1-0.2-1.5-0.2c-0.5,0-1.1,0.1-1.6,0.2c-0.5,0.1-0.9,0.3-1.4,0.5
			c-0.4,0.2-0.8,0.5-1.2,0.8c-0.7,0.6-1.1,1.4-1.4,2.3c-0.1,0.5-0.2,0.9-0.2,1.4c0,0.7,0.1,1.4,0.4,2c0.3,0.6,0.7,1.2,1.2,1.7
			c0.5,0.5,1.1,0.9,1.7,1.2c0.7,0.3,1.5,0.4,2.3,0.4c0.5,0,1.1-0.1,1.6-0.2c0.4-0.1,0.9-0.3,1.3-0.6c0.4-0.2,0.7-0.5,1-0.8
			c0.3-0.3,0.5-0.6,0.7-1L223,19c-0.2,0.3-0.3,0.6-0.5,0.8c-0.2,0.3-0.5,0.5-0.7,0.7c-0.3,0.2-0.6,0.4-0.9,0.5
			c-0.3,0.1-0.7,0.2-1,0.2c-0.6,0-1.1-0.1-1.6-0.3c-0.5-0.2-0.9-0.5-1.3-0.9c-0.4-0.4-0.7-0.9-0.9-1.4c-0.2-0.6-0.3-1.2-0.3-1.9
			C215.6,16.2,215.7,15.5,215.9,14.8z M201.7,14.3v7.4h1.5V16c0.2-0.2,0.4-0.3,0.5-0.5c0.2-0.1,0.4-0.2,0.6-0.4
			c0.2-0.1,0.4-0.2,0.6-0.2c0.2-0.1,0.3-0.1,0.5-0.1c0.2,0,0.3,0,0.5,0.1c0.2,0.1,0.3,0.2,0.4,0.3c0.1,0.1,0.3,0.3,0.3,0.5
			c0.1,0.2,0.1,0.4,0.1,0.7v5.3h1.5v-5.5c0-0.3,0-0.6-0.1-0.9c-0.1-0.3-0.2-0.5-0.4-0.7c-0.2-0.2-0.4-0.4-0.6-0.5
			c-0.2-0.1-0.5-0.2-0.8-0.2c-0.5,0-1.1,0.1-1.5,0.4c-0.6,0.3-1,0.7-1.5,1.2v-1.6h-0.4L201.7,14.3z M197.6,20.1
			c-0.1,0.1-0.3,0.2-0.4,0.3c-0.1,0.1-0.3,0.2-0.4,0.3c-0.1,0.1-0.3,0.1-0.5,0.2c-0.2,0-0.3,0.1-0.5,0.1c-0.2,0-0.3,0-0.5-0.1
			c-0.1-0.1-0.3-0.2-0.4-0.3c-0.1-0.1-0.2-0.3-0.3-0.4c-0.1-0.2-0.1-0.4-0.1-0.5c0-0.2,0-0.4,0.1-0.5c0.1-0.2,0.2-0.3,0.4-0.5
			c0.2-0.2,0.3-0.3,0.5-0.4c0.2-0.1,0.4-0.3,0.7-0.4c0.2-0.1,0.5-0.2,0.7-0.3l0.7-0.2L197.6,20.1z M199.9,21.7
			c-0.2-0.1-0.4-0.2-0.5-0.4c-0.1-0.2-0.2-0.4-0.2-0.6v-4.8c0-0.3,0-0.6-0.1-0.8c-0.1-0.3-0.2-0.5-0.4-0.6c-0.2-0.2-0.5-0.3-0.8-0.4
			c-0.4-0.1-0.8-0.1-1.3-0.1c-0.4,0-0.8,0-1.2,0.1c-0.3,0.1-0.7,0.2-1,0.4c-0.3,0.2-0.5,0.4-0.7,0.7c-0.2,0.3-0.3,0.6-0.3,0.9h1.4
			c0-0.2,0.1-0.4,0.2-0.6c0.1-0.2,0.2-0.4,0.3-0.5c0.1-0.1,0.3-0.3,0.5-0.3c0.2-0.1,0.4-0.1,0.6-0.1c0.2,0,0.4,0,0.6,0.1
			c0.2,0.1,0.3,0.2,0.4,0.3c0.1,0.2,0.2,0.4,0.2,0.6c0.1,0.3,0.1,0.6,0.1,0.9v0.5l-1.1,0.3c-0.4,0.1-0.7,0.2-1.1,0.3
			c-0.3,0.1-0.6,0.3-1,0.4c-0.3,0.2-0.6,0.3-0.8,0.5c-0.2,0.2-0.4,0.4-0.5,0.7c-0.1,0.3-0.2,0.6-0.2,0.9c0,0.3,0,0.5,0.1,0.8
			c0.1,0.2,0.2,0.4,0.4,0.6c0.2,0.2,0.4,0.3,0.6,0.4c0.3,0.1,0.5,0.1,0.8,0.1c0.3,0,0.6,0,0.9-0.1c0.2-0.1,0.5-0.2,0.7-0.3
			c0.2-0.1,0.4-0.3,0.6-0.4l0.5-0.4c0,0.2,0.1,0.5,0.2,0.6c0.1,0.2,0.3,0.3,0.5,0.4L199.9,21.7z M185.4,16.5c0-0.3,0.1-0.6,0.2-0.8
			c0.1-0.2,0.2-0.5,0.4-0.7c0.2-0.2,0.3-0.3,0.6-0.4c0.2-0.1,0.4-0.2,0.7-0.2c0.5,0,1,0.2,1.4,0.6c0.2,0.2,0.3,0.4,0.4,0.7
			c0.1,0.3,0.2,0.5,0.2,0.8H185.4z M188.9,21.6c0.8-0.3,1.5-0.8,1.9-1.5c0.2-0.3,0.4-0.7,0.5-1.1l-0.4-0.2c-0.1,0.3-0.2,0.5-0.4,0.7
			c-0.2,0.2-0.4,0.4-0.6,0.6c-0.3,0.2-0.5,0.3-0.8,0.4c-0.3,0.1-0.6,0.2-1,0.2c-0.4,0-0.8-0.1-1.1-0.3c-0.3-0.2-0.6-0.4-0.9-0.8
			c-0.3-0.3-0.5-0.7-0.6-1.2c-0.1-0.5-0.2-1-0.2-1.4h5.8c0-0.9-0.4-1.7-1-2.3c-0.3-0.3-0.7-0.5-1.1-0.7c-1-0.4-2-0.4-3,0.1
			c-0.4,0.2-0.8,0.5-1.2,0.9c-0.3,0.4-0.6,0.9-0.8,1.4c-0.2,0.6-0.3,1.1-0.3,1.7c0,0.5,0.1,1,0.3,1.5c0.2,0.4,0.5,0.8,0.8,1.2
			c0.3,0.3,0.7,0.6,1.2,0.8c0.5,0.2,1,0.3,1.5,0.3C188.1,21.8,188.5,21.8,188.9,21.6L188.9,21.6z M181.7,10h-0.4l-1.1,0.4v11.2h1.5
			V10z M170.1,14.8c0.2-0.5,0.5-1,0.9-1.4c0.4-0.4,0.8-0.7,1.3-0.9c0.5-0.2,1.1-0.3,1.6-0.3c0.6,0,1.3,0.2,1.8,0.6
			c0.6,0.5,1.1,1.1,1.5,1.8l0.7-0.5c-0.2-0.3-0.5-0.7-0.7-1c-0.3-0.3-0.6-0.6-1-0.8c-0.4-0.2-0.8-0.4-1.2-0.6
			c-0.5-0.1-1-0.2-1.5-0.2c-0.5,0-1.1,0.1-1.6,0.2c-0.5,0.1-0.9,0.3-1.4,0.5c-0.4,0.2-0.8,0.5-1.1,0.8c-0.3,0.3-0.6,0.7-0.8,1.1
			c-0.2,0.4-0.4,0.8-0.5,1.3c-0.1,0.5-0.2,0.9-0.2,1.4c0,0.7,0.1,1.4,0.4,2c0.3,0.6,0.7,1.2,1.2,1.7c0.5,0.5,1.1,0.9,1.7,1.2
			c0.7,0.3,1.5,0.4,2.3,0.4c0.5,0,1.1-0.1,1.6-0.2c0.4-0.1,0.9-0.3,1.3-0.6c0.4-0.2,0.7-0.5,1-0.8c0.3-0.3,0.5-0.6,0.7-1l-0.7-0.5
			c-0.1,0.3-0.3,0.6-0.5,0.8c-0.2,0.3-0.5,0.5-0.7,0.7c-0.3,0.2-0.6,0.4-0.9,0.5c-0.3,0.1-0.7,0.2-1,0.2c-0.6,0-1.1-0.1-1.6-0.3
			c-0.5-0.2-0.9-0.5-1.3-0.9c-0.4-0.4-0.7-0.9-0.9-1.4c-0.2-0.6-0.3-1.2-0.3-1.9C169.8,16.1,169.9,15.5,170.1,14.8L170.1,14.8z"/>
	</g>
</g>
</svg>
