<svg xmlns="http://www.w3.org/2000/svg" viewBox="0 0 148.3 210.61"><defs><style>.cls-1{fill:#fff;}.cls-2{fill:none;stroke:#fff;stroke-miterlimit:10;stroke-width:2.91px;}</style></defs><g id="レイヤー_2" data-name="レイヤー 2"><g id="レイヤー_1-2" data-name="レイヤー 1"><path class="cls-1" d="M20.81,137.86a56.19,56.19,0,0,1-5.72,5.4v10.21c2.84-.78,5.67-1.48,8.51-2.31l-.22,2.53c-4.93,1.39-9.9,2.57-14.83,3.88-.05.22-.22.48-.48.48a.3.3,0,0,1-.26-.17l-1.22-2.8,5.58-1v-8.9a47.39,47.39,0,0,1-9.64,4.8L.65,148.06c5.5-1.79,12.65-5.58,16.27-10.2H2.22v-2.1H18.41V132H7.24v-2.09H18.41v-4.1H4.14v-2.14H18.36v-4.54c1.09.09,2.23.13,3.32.27a.25.25,0,0,1,.26.26c0,.26-.31.43-.52.48v3.53H36.16v2.14H21.33v4.1H33V132H21.33v3.75H37.82v2.1Zm16,20A26.9,26.9,0,0,1,21.9,143.79c3.4-1.31,7.28-2.66,10.33-4.63a23.8,23.8,0,0,1,2.27,2.66c0,.22-.26.31-.43.31a1,1,0,0,1-.44-.17c-2.79.87-5.59,1.83-8.42,2.57,2.62,5.63,8.07,9.12,13.74,11.08Z"/><path class="cls-1" d="M84.66,147.1a39.8,39.8,0,0,1-16-11.86H63.68a37.79,37.79,0,0,1-14.74,11.25l-1.83-2a34.76,34.76,0,0,0,13.08-9.08H48.63v-2.26H61.5a25,25,0,0,0,2.31-3.8l-11.29.52-.83-2.44a32,32,0,0,0,3.53,0,4.21,4.21,0,0,0,2.4-1.09,34.5,34.5,0,0,0,6.11-7.46,34,34,0,0,1,3.62,1.31c.13,0,.39.17.39.39s-.65.39-.92.35a95.4,95.4,0,0,1-7.5,6.58c5.32-.13,10.82-.34,16.14-.43a51.42,51.42,0,0,0-4.23-3.19l2.53-1.57a89.06,89.06,0,0,1,8,6.5l-2.18,1.75c-.65-.53-1.27-1.05-1.92-1.62-3.4.18-6.8.27-10.21.44a42.61,42.61,0,0,1-2.61,3.8H85v2.26H72.36c3,4.45,9.47,7.55,14.4,9.25Zm-6.58,3.32a.79.79,0,0,1-.44-.13,45.21,45.21,0,0,1-22.24,8.29l-1.88-2.19c8.37-.74,15.88-3.09,22.24-8.76.83.74,1.79,1.39,2.62,2.18a.41.41,0,0,1,.09.26A.38.38,0,0,1,78.08,150.42Zm-9.47-9.16a41.43,41.43,0,0,1-13.13,7.33L54,146.84A31.35,31.35,0,0,0,66.74,139a16.07,16.07,0,0,1,2.48,2.09C69.22,141.35,68.79,141.35,68.61,141.26Zm4.63,4.49a1.11,1.11,0,0,1-.4-.09c-4.49,3.49-11.42,6.94-17,7.94l-1.52-2a36.69,36.69,0,0,0,16.83-8.29,25.45,25.45,0,0,1,2.44,2.22C73.58,145.71,73.37,145.75,73.24,145.75Z"/><path class="cls-1" d="M131.16,157c-2.66.17-5.28.31-7.94.31-8.37,0-15.39-.48-22.68-5.11a20.54,20.54,0,0,1-3.62,5.11c-.74-.4-1.48-.88-2.22-1.31,4.53-4.8,5.14-11.52,5.23-17.8H94.22v-2.31h8.85a47.47,47.47,0,0,1-1.79,13.39,27.13,27.13,0,0,0,6.55,3.75c4.4,1.62,8.72,1.83,13.39,1.83a103.17,103.17,0,0,0,11-.56Zm-29.4-30.27a44.08,44.08,0,0,0-6.23-4c.69-.83,1.35-1.66,2-2.49a31.54,31.54,0,0,1,5.8,4.58A11.23,11.23,0,0,1,101.76,126.69Zm17.41,1c-.92,1.31-1.75,2.66-2.75,3.88h11.29v19.19h-19.4V131.53h5.75c.61-1.26,1.22-2.57,1.7-3.88H105.69v-2.09H120a67.65,67.65,0,0,0,2.62-6.37c1.13.39,2.35.74,3.44,1.22a.28.28,0,0,1,.22.31c0,.3-.39.34-.65.3-1.09,1.53-2.18,3-3.32,4.54h9.25v2.09Zm-6.24-2.36a41.35,41.35,0,0,0-3.62-4.62c1-.57,1.92-1.26,2.92-1.79a40.81,40.81,0,0,1,2.84,5.24A20.22,20.22,0,0,1,112.93,125.29Zm11.95,8.25h-14V137h14Zm0,5.45h-14v3.62h14Zm0,5.67h-14v4h14Z"/><path class="cls-1" d="M17.84,181.26a65.94,65.94,0,0,1-6,8.33H20.5v-5.37c1,.09,2.05.09,3.05.22.13,0,.4,0,.4.26s-.4.48-.61.53v4.36h11v9.29c0,4.54-1.22,7.72-6.15,8.5l-1.57-1.91c3.49-.83,4.84-2.62,4.84-6.16v-7.63H23.29v18.45H20.5V191.68H12.43v15.49H9.73V192.38a37.71,37.71,0,0,1-7.68,6.41l-2-1.74a42.3,42.3,0,0,0,14.61-15.79H2.4v-2.49H15.61a50.13,50.13,0,0,0,2.71-7L22,172.88a.39.39,0,0,1,.26.31c0,.43-.61.56-.91.56a53.73,53.73,0,0,1-2.4,5H38.12v2.49Z"/><path class="cls-1" d="M49.81,209.43V174.1h33.5v35.33Zm30.67-33H52.6v30.71H80.48Zm-8.33,11v9.9c0,4.62-1.1,7.29-6,8.12l-1.61-1.93c3.92-.87,4.88-2.18,4.88-6.14v-10H55.13v-2.36H69.44V179c1,.09,2,.13,3,.31.18,0,.35.08.35.3s-.48.48-.69.52v5h6.23v2.36Zm-8.73,11a36.12,36.12,0,0,0-5.71-6.37c.83-.66,1.61-1.31,2.4-2,2,2.1,3.7,4.41,5.45,6.68Z"/><path class="cls-1" d="M100.67,179.43c.09,1.87.09,3.79.09,5.66,0,8,0,18-5.37,24.48L93,207.91c4.53-5.76,4.75-13.61,4.75-20.59,0-3.45-.22-6.89-.39-10.34l14.74,0v-5.06l3.36.17c.13,0,.39,0,.39.27s-.35.39-.52.43v4.19h15.35v2.49ZM116.46,189v6.37H127v14H104.29v-14h9.16v-14.7l3.23.26c.13,0,.35.13.35.26s-.39.44-.57.48v4.93h14.18V189Zm7.46,8.51H107.21v9.59h16.71Z"/><path class="cls-1" d="M142.42,210.61a5.85,5.85,0,1,1,5.88-5.8A5.86,5.86,0,0,1,142.42,210.61Zm0-9.77a4,4,0,0,0-3.93,4,3.95,3.95,0,0,0,7.89,0A4,4,0,0,0,142.42,200.84Z"/><polyline class="cls-2" points="40.2 30.28 96.21 30.28 96.21 73.59 40.2 73.59"/><line class="cls-2" x1="96.21" y1="51.94" x2="40.2" y2="51.94"/><path class="cls-2" d="M118.69,51.94A50.49,50.49,0,1,1,68.21,1.45,50.48,50.48,0,0,1,118.69,51.94Z"/></g></g></svg>