<svg xmlns="http://www.w3.org/2000/svg" viewBox="0 0 435.33 50.25"><defs><style>.cls-1{fill:#fff;}</style></defs><g id="レイヤー_2" data-name="レイヤー 2"><g id="レイヤー_1-2" data-name="レイヤー 1"><path class="cls-1" d="M414,14V38.5h5.08V19.62a16.62,16.62,0,0,1,1.77-1.49A13.78,13.78,0,0,1,422.69,17a10.78,10.78,0,0,1,1.83-.76,5.89,5.89,0,0,1,1.7-.27,4,4,0,0,1,1.63.33,3.81,3.81,0,0,1,1.28,1,4.6,4.6,0,0,1,.85,1.6,7.88,7.88,0,0,1,.29,2.23V38.5h5.06V20.22a9,9,0,0,0-.5-3,7.78,7.78,0,0,0-1.37-2.45,6.53,6.53,0,0,0-2-1.65,5.45,5.45,0,0,0-2.5-.59,10.89,10.89,0,0,0-5.06,1.28,16.76,16.76,0,0,0-4.8,3.87V12.53h-1.45ZM370,13l11.16,25.77h1.57l7.15-16.66L397,38.77h1.72L409.14,13H406.7l-7.12,18.63-8-18.63-8,18.63L375.48,13ZM350.75,36.12A8.94,8.94,0,0,1,348,33.25,14.35,14.35,0,0,1,346.27,29a22.4,22.4,0,0,1-.59-5.23,11.69,11.69,0,0,1,.55-3.63,10.42,10.42,0,0,1,1.46-3,7.14,7.14,0,0,1,2.1-2,4.66,4.66,0,0,1,2.47-.73,7.61,7.61,0,0,1,7,3.86,13,13,0,0,1,1.54,4.21,26.51,26.51,0,0,1,.48,5.18,13,13,0,0,1-.5,3.63,10.3,10.3,0,0,1-1.4,3,7.17,7.17,0,0,1-2.14,2.08,5.13,5.13,0,0,1-2.74.77A6.66,6.66,0,0,1,350.75,36.12Zm8.12,1.82a13.25,13.25,0,0,0,4.24-3,14,14,0,0,0,2.81-4.46,14.72,14.72,0,0,0,1-5.44,12,12,0,0,0-1-4.9,12.26,12.26,0,0,0-2.81-4,13,13,0,0,0-4.24-2.66,14.44,14.44,0,0,0-5.37-1,13.61,13.61,0,0,0-5.4,1.05A13.09,13.09,0,0,0,341,20.81a13.92,13.92,0,0,0-1,5.29,12.71,12.71,0,0,0,1,5,12.55,12.55,0,0,0,2.8,4.11A13.15,13.15,0,0,0,348.1,38a14,14,0,0,0,5.4,1A12.9,12.9,0,0,0,358.87,37.94Zm-50.46-30h5.93a14.14,14.14,0,0,1,5.42,1A12.72,12.72,0,0,1,324,11.8a13.22,13.22,0,0,1,2.79,4.4,15.38,15.38,0,0,1,1,5.61A16.39,16.39,0,0,1,326.75,28a12.88,12.88,0,0,1-2.89,4.47,11.94,11.94,0,0,1-4.29,2.74,14.77,14.77,0,0,1-5.26.92h-5.9ZM302.86,38.5h12.33a23.55,23.55,0,0,0,8.18-1.32,17.52,17.52,0,0,0,6-3.6,15.13,15.13,0,0,0,3.68-5.34,17.06,17.06,0,0,0,1.26-6.55,16.07,16.07,0,0,0-1.41-6.75,15.76,15.76,0,0,0-4.19-5.48,15.16,15.16,0,0,0-6.1-3,35.38,35.38,0,0,0-8.74-.94h-11ZM265.53,21.19a8.21,8.21,0,0,1,.63-2.69,7.8,7.8,0,0,1,1.36-2.15,6.07,6.07,0,0,1,1.87-1.42,4.89,4.89,0,0,1,2.19-.51,6.27,6.27,0,0,1,2.56.52,6.47,6.47,0,0,1,3.5,3.59,7,7,0,0,1,.51,2.69ZM277,38.3a13.78,13.78,0,0,0,3.55-2,14.52,14.52,0,0,0,2.85-3,12,12,0,0,0,1.77-3.69l-1.47-.64a7.17,7.17,0,0,1-1.22,2.31,10.32,10.32,0,0,1-2.11,2,11.3,11.3,0,0,1-2.75,1.4,9.37,9.37,0,0,1-3.16.54,7.38,7.38,0,0,1-3.61-.9A8.74,8.74,0,0,1,268,31.8,11.87,11.87,0,0,1,266.16,28a16.38,16.38,0,0,1-.66-4.75h19a10.31,10.31,0,0,0-.83-4.06,10.74,10.74,0,0,0-2.34-3.42,11.51,11.51,0,0,0-8.18-3.25A11.94,11.94,0,0,0,268,13.6a11.57,11.57,0,0,0-3.95,3,13.42,13.42,0,0,0-2.54,4.49,17.28,17.28,0,0,0-.9,5.67,11.77,11.77,0,0,0,1,4.79,12.33,12.33,0,0,0,2.67,3.93,12.88,12.88,0,0,0,4,2.64,12.45,12.45,0,0,0,4.87,1A10.63,10.63,0,0,0,277,38.3ZM253.42,0H252l-3.61,1.44V38.5h5.08ZM239.56,17.51a6.83,6.83,0,0,0-1.39-2.08,8.2,8.2,0,0,0-2.07-1.57,10.9,10.9,0,0,0-2.56-1,12.1,12.1,0,0,0-2.92-.34,12.33,12.33,0,0,0-3.5.49A13.54,13.54,0,0,0,224,14.43a13.27,13.27,0,0,0-2.67,2.18,13.59,13.59,0,0,0-2.07,2.81,14.61,14.61,0,0,0-1.81,7,12.7,12.7,0,0,0,1,4.9,12.94,12.94,0,0,0,2.57,4,11.49,11.49,0,0,0,3.81,2.7,11.83,11.83,0,0,0,8.72.3,10.4,10.4,0,0,0,3.34-2,12.67,12.67,0,0,0,2.58-3.2,17.75,17.75,0,0,0,1.74-4.28l-1.52-.63a22.34,22.34,0,0,1-1.24,2.66,9.93,9.93,0,0,1-1.66,2.2,7.4,7.4,0,0,1-2.26,1.51,7.88,7.88,0,0,1-3.08.56,7.08,7.08,0,0,1-3.65-1,9,9,0,0,1-2.79-2.6,12.76,12.76,0,0,1-1.79-3.83,16.53,16.53,0,0,1-.64-4.62,11.33,11.33,0,0,1,.5-3.38A8.6,8.6,0,0,1,224.45,17a6.82,6.82,0,0,1,2.31-1.89,6.69,6.69,0,0,1,3.09-.7,4.93,4.93,0,0,1,2.34.52,5.89,5.89,0,0,1,1.73,1.36,7.87,7.87,0,0,1,1.21,1.85,13.48,13.48,0,0,1,.75,2ZM189,49.26a4.4,4.4,0,0,0,1.42.72,5.65,5.65,0,0,0,1.74.27,7.5,7.5,0,0,0,2.46-.43,9.16,9.16,0,0,0,2.47-1.33,11.81,11.81,0,0,0,2.25-2.27A14.76,14.76,0,0,0,201.22,43l13-30h-2.72l-8,18.43L193.68,13h-5.75l13,24.3-1.72,3.84a16,16,0,0,1-.75,1.49,9,9,0,0,1-1,1.47,5.59,5.59,0,0,1-1.27,1.12,2.68,2.68,0,0,1-1.49.45,5.26,5.26,0,0,1-1.17-.12,7.22,7.22,0,0,1-1-.31c-.29-.13-.56-.26-.8-.39a6.49,6.49,0,0,0-.66-.32ZM158.72,15.85a14.14,14.14,0,0,1,2.91-4.72,13,13,0,0,1,4.35-3,13.83,13.83,0,0,1,5.35-1A9.86,9.86,0,0,1,177.24,9a16.27,16.27,0,0,1,4.63,5.87l2.41-1.6a19.59,19.59,0,0,0-2.45-3.2,16.79,16.79,0,0,0-3.26-2.7,17.15,17.15,0,0,0-4.06-1.88,16.1,16.1,0,0,0-4.87-.71,20.24,20.24,0,0,0-5.2.64,18.63,18.63,0,0,0-4.5,1.79,17.17,17.17,0,0,0-7.47,21.56,16.44,16.44,0,0,0,3.7,5.47,17.59,17.59,0,0,0,5.74,3.71,19.59,19.59,0,0,0,7.46,1.37,17.55,17.55,0,0,0,5.14-.7A16.21,16.21,0,0,0,181.87,34a21.12,21.12,0,0,0,2.41-3.2l-2.34-1.49A15.51,15.51,0,0,1,180.15,32a15.9,15.9,0,0,1-2.48,2.44,12.87,12.87,0,0,1-3,1.75,8.66,8.66,0,0,1-3.36.68,14.3,14.3,0,0,1-5.4-1A12.46,12.46,0,0,1,161.59,33a13.51,13.51,0,0,1-2.88-4.65,17.38,17.38,0,0,1-1.05-6.22A17.6,17.6,0,0,1,158.72,15.85ZM111.66,14V38.5h5.08V19.62a16.62,16.62,0,0,1,1.77-1.49A13.78,13.78,0,0,1,120.36,17a11.49,11.49,0,0,1,1.83-.76,5.94,5.94,0,0,1,1.7-.27,4,4,0,0,1,1.63.33,3.72,3.72,0,0,1,1.28,1,4.44,4.44,0,0,1,.85,1.6,7.52,7.52,0,0,1,.3,2.23V38.5h5V20.22a9,9,0,0,0-.5-3,7.78,7.78,0,0,0-1.37-2.45,6.42,6.42,0,0,0-2-1.65,5.45,5.45,0,0,0-2.5-.59,10.85,10.85,0,0,0-5,1.28,16.79,16.79,0,0,0-4.81,3.87V12.53H115.3ZM98.36,33.17c-.5.38-1,.74-1.47,1.07a14,14,0,0,1-1.45.88,8.38,8.38,0,0,1-1.49.62,6.15,6.15,0,0,1-1.62.22,3.48,3.48,0,0,1-1.54-.36,4.12,4.12,0,0,1-1.32-1,5,5,0,0,1-.92-1.47,4.42,4.42,0,0,1-.35-1.78,3.53,3.53,0,0,1,.45-1.72,6.2,6.2,0,0,1,1.22-1.56,10.79,10.79,0,0,1,1.79-1.4c.68-.43,1.39-.83,2.14-1.21s1.51-.71,2.29-1,1.54-.56,2.27-.79Zm7.44,5.33a4.74,4.74,0,0,1-1.68-1.41,3.39,3.39,0,0,1-.68-2.08V19.27A8.43,8.43,0,0,0,103,16.5a4.75,4.75,0,0,0-1.46-2.13A7.1,7.1,0,0,0,98.83,13a15.55,15.55,0,0,0-4.18-.48A14.49,14.49,0,0,0,90.9,13a11.59,11.59,0,0,0-3.23,1.36,8.18,8.18,0,0,0-2.35,2.18,6.19,6.19,0,0,0-1.13,2.93h4.63a7.4,7.4,0,0,1,.58-2,6.09,6.09,0,0,1,1.13-1.66,5.11,5.11,0,0,1,1.58-1.14,4.53,4.53,0,0,1,2-.42,5.31,5.31,0,0,1,1.93.31,2.92,2.92,0,0,1,1.34,1.05,5.29,5.29,0,0,1,.77,1.93,15,15,0,0,1,.25,2.93V22c-1.13.28-2.29.59-3.49.92s-2.36.71-3.49,1.13a26.46,26.46,0,0,0-3.18,1.45,13.22,13.22,0,0,0-2.63,1.84,7.74,7.74,0,0,0-1.78,2.35,6.68,6.68,0,0,0-.65,3,7,7,0,0,0,.46,2.51,5.9,5.9,0,0,0,1.3,2,5.82,5.82,0,0,0,2,1.33,7.25,7.25,0,0,0,2.7.49,9.79,9.79,0,0,0,2.85-.38,10.57,10.57,0,0,0,2.24-1,12,12,0,0,0,1.87-1.3c.57-.48,1.16-.95,1.76-1.4A3.39,3.39,0,0,0,99,37.09a4.74,4.74,0,0,0,1.68,1.41ZM58,21.19a8.21,8.21,0,0,1,.63-2.69A7.8,7.8,0,0,1,60,16.35a6.07,6.07,0,0,1,1.87-1.42,5,5,0,0,1,2.19-.51,6.27,6.27,0,0,1,2.56.52,6.47,6.47,0,0,1,3.5,3.59,7,7,0,0,1,.51,2.69ZM69.49,38.3a13.78,13.78,0,0,0,3.55-2,14.52,14.52,0,0,0,2.85-3,12,12,0,0,0,1.77-3.69l-1.47-.64A7.17,7.17,0,0,1,75,31.25a10.07,10.07,0,0,1-2.11,2,11.3,11.3,0,0,1-2.75,1.4,9.37,9.37,0,0,1-3.16.54,7.38,7.38,0,0,1-3.61-.9A8.85,8.85,0,0,1,60.5,31.8,11.87,11.87,0,0,1,58.64,28,16.38,16.38,0,0,1,58,23.26H77a10.14,10.14,0,0,0-.83-4.06,10.74,10.74,0,0,0-2.34-3.42,11.39,11.39,0,0,0-3.6-2.37,11.61,11.61,0,0,0-4.58-.88,11.94,11.94,0,0,0-5.14,1.07,11.57,11.57,0,0,0-4,3A13.42,13.42,0,0,0,54,21.05a17.28,17.28,0,0,0-.9,5.67,11.77,11.77,0,0,0,1,4.79,12.33,12.33,0,0,0,2.67,3.93,12.81,12.81,0,0,0,4,2.64,12.37,12.37,0,0,0,4.86,1A10.63,10.63,0,0,0,69.49,38.3ZM45.9,0H44.43L40.82,1.44V38.5H45.9ZM7.56,15.85a13.83,13.83,0,0,1,2.91-4.72,13,13,0,0,1,4.35-3,13.79,13.79,0,0,1,5.35-1A9.83,9.83,0,0,1,26.07,9a16.16,16.16,0,0,1,4.63,5.87l2.42-1.6A20.16,20.16,0,0,0,30.67,10a17.1,17.1,0,0,0-3.26-2.7,17.34,17.34,0,0,0-4.06-1.88,16.1,16.1,0,0,0-4.87-.71,20.32,20.32,0,0,0-5.21.64A18.72,18.72,0,0,0,8.78,7.16,17.43,17.43,0,0,0,5.09,9.92a17.05,17.05,0,0,0-2.76,3.54A16.72,16.72,0,0,0,.6,17.59,17.16,17.16,0,0,0,0,22.11a17,17,0,0,0,1.31,6.61A16.29,16.29,0,0,0,5,34.19a17.49,17.49,0,0,0,5.74,3.71,19.54,19.54,0,0,0,7.45,1.37,17.58,17.58,0,0,0,5.15-.7A16.1,16.1,0,0,0,30.7,34a21.19,21.19,0,0,0,2.42-3.2l-2.34-1.49A16.09,16.09,0,0,1,29,32a15.9,15.9,0,0,1-2.48,2.44,12.87,12.87,0,0,1-3,1.75,8.66,8.66,0,0,1-3.36.68,14.31,14.31,0,0,1-5.41-1A12.46,12.46,0,0,1,10.42,33a13.49,13.49,0,0,1-2.87-4.65,17.38,17.38,0,0,1-1-6.22A17.38,17.38,0,0,1,7.56,15.85Z"/></g></g></svg>