<svg xmlns="http://www.w3.org/2000/svg" viewBox="0 -40 1200 680" width="1200" height="680">
  <defs>
    <linearGradient id="skyGrad" x1="0" y1="0" x2="0" y2="1">
      <stop offset="0%" stop-color="#F5F0E8"/>
      <stop offset="100%" stop-color="#EDE6D8"/>
    </linearGradient>
    <linearGradient id="groundGrad" x1="0" y1="0" x2="0" y2="1">
      <stop offset="0%" stop-color="#D4C9A8"/>
      <stop offset="40%" stop-color="#C8BD9F"/>
      <stop offset="100%" stop-color="#B8AD8F"/>
    </linearGradient>
    <filter id="softShadow" x="-5%" y="-5%" width="110%" height="120%">
      <feGaussianBlur in="SourceAlpha" stdDeviation="4" result="blur"/>
      <feOffset dx="2" dy="4" result="offsetBlur"/>
      <feComponentTransfer result="fade">
        <feFuncA type="linear" slope="0.15"/>
      </feComponentTransfer>
      <feMerge>
        <feMergeNode in="fade"/>
        <feMergeNode in="SourceGraphic"/>
      </feMerge>
    </filter>
  </defs>

  <!-- Background -->
  <rect x="0" y="-40" width="1200" height="680" fill="url(#skyGrad)"/>

  <!-- Ground -->
  <ellipse cx="600" cy="580" rx="700" ry="120" fill="url(#groundGrad)"/>

  <!-- Grass tufts - scattered -->
  <g stroke="#8B9968" stroke-width="1.5" fill="none" stroke-linecap="round">
    <!-- Left grass cluster -->
    <path d="M120,520 Q118,500 115,485"/>
    <path d="M125,520 Q127,495 122,478"/>
    <path d="M130,520 Q135,500 132,480"/>
    <path d="M128,522 Q120,505 124,490"/>

    <!-- Center-left grass -->
    <path d="M340,535 Q338,515 335,500"/>
    <path d="M345,535 Q347,510 342,495"/>
    <path d="M350,535 Q355,515 352,498"/>

    <!-- Center grass -->
    <path d="M560,540 Q558,520 555,505"/>
    <path d="M565,540 Q567,515 562,500"/>
    <path d="M570,540 Q575,520 572,503"/>
    <path d="M575,542 Q570,522 573,508"/>

    <!-- Right grass -->
    <path d="M780,530 Q778,510 775,495"/>
    <path d="M785,530 Q787,505 782,490"/>
    <path d="M790,530 Q795,510 792,493"/>

    <!-- Far right grass -->
    <path d="M1020,525 Q1018,505 1015,490"/>
    <path d="M1025,525 Q1027,500 1022,485"/>
    <path d="M1030,525 Q1035,505 1032,488"/>
    <path d="M1028,527 Q1020,510 1024,495"/>

    <!-- Extra scattered grass -->
    <path d="M200,530 Q198,515 196,505"/>
    <path d="M450,538 Q452,518 448,505"/>
    <path d="M680,535 Q678,515 676,502"/>
    <path d="M900,528 Q902,508 898,495"/>
    <path d="M1100,530 Q1098,515 1096,505"/>
  </g>

  <!-- Small flowers scattered on ground -->
  <g fill="#D4B896" opacity="0.4">
    <circle cx="180" cy="530" r="2"/>
    <circle cx="400" cy="542" r="1.5"/>
    <circle cx="650" cy="538" r="2"/>
    <circle cx="850" cy="532" r="1.5"/>
    <circle cx="1050" cy="535" r="2"/>
  </g>

  <!-- === MOTHER GOOSE (left, larger - Premium RDS) === -->
  <g filter="url(#softShadow)" transform="translate(220, 180)">
    <!-- Body -->
    <ellipse cx="120" cy="280" rx="95" ry="70" fill="#F2EDE4" stroke="#6B5E4A" stroke-width="1.8"/>

    <!-- Body feather texture lines -->
    <g stroke="#C8BDA8" stroke-width="0.8" fill="none" opacity="0.6">
      <path d="M55,260 Q80,255 100,260"/>
      <path d="M50,275 Q80,270 110,275"/>
      <path d="M55,290 Q85,285 115,290"/>
      <path d="M60,305 Q90,300 120,305"/>
      <path d="M70,250 Q95,247 120,252"/>
      <path d="M130,255 Q155,252 175,258"/>
      <path d="M125,270 Q150,267 180,272"/>
      <path d="M120,285 Q150,282 185,287"/>
      <path d="M115,300 Q145,297 175,302"/>
      <path d="M65,315 Q95,312 130,317"/>
    </g>

    <!-- Tail feathers -->
    <path d="M210,260 Q245,240 260,220 Q250,245 240,255 Q255,235 268,215 Q252,250 245,258 Q260,242 270,225 Q255,255 245,265" fill="#E8E0D2" stroke="#6B5E4A" stroke-width="1.2"/>
    <g stroke="#A89880" stroke-width="0.6" fill="none" opacity="0.5">
      <path d="M215,258 Q235,245 250,230"/>
      <path d="M220,262 Q240,248 255,235"/>
      <path d="M225,265 Q245,252 258,240"/>
    </g>

    <!-- Neck -->
    <path d="M40,265 Q25,220 30,170 Q32,140 45,110 Q48,100 55,95" fill="none" stroke="#6B5E4A" stroke-width="2.2" stroke-linecap="round"/>
    <path d="M65,275 Q50,230 55,175 Q57,145 68,118 Q70,108 75,103" fill="none" stroke="#6B5E4A" stroke-width="2.2" stroke-linecap="round"/>
    <!-- Neck fill -->
    <path d="M40,265 Q25,220 30,170 Q32,140 45,110 Q48,100 55,95 L75,103 Q70,108 68,118 Q57,145 55,175 Q50,230 65,275 Z" fill="#F2EDE4"/>
    <!-- Neck feather texture -->
    <g stroke="#C8BDA8" stroke-width="0.6" fill="none" opacity="0.5">
      <path d="M38,240 Q48,238 60,242"/>
      <path d="M36,220 Q46,218 58,222"/>
      <path d="M34,200 Q44,198 56,202"/>
      <path d="M33,180 Q43,178 55,182"/>
      <path d="M35,160 Q45,158 57,162"/>
      <path d="M38,140 Q48,138 60,142"/>
    </g>

    <!-- Head -->
    <ellipse cx="62" cy="85" rx="22" ry="18" fill="#F2EDE4" stroke="#6B5E4A" stroke-width="1.8"/>
    <!-- Crown/forehead bump -->
    <path d="M50,72 Q55,60 65,58 Q75,60 78,72" fill="#F2EDE4" stroke="#6B5E4A" stroke-width="1.5"/>

    <!-- Eye -->
    <ellipse cx="53" cy="80" rx="4" ry="4.5" fill="#1A1A1A"/>
    <ellipse cx="52" cy="79" rx="1.2" ry="1.5" fill="#fff"/>

    <!-- Beak -->
    <path d="M38,88 Q30,84 22,86 Q18,87 15,90 Q18,92 22,93 Q30,95 38,92" fill="#E8A040" stroke="#C07828" stroke-width="1"/>
    <!-- Beak detail - nostril -->
    <ellipse cx="28" cy="88" rx="2" ry="1" fill="#C07828" opacity="0.5"/>
    <!-- Beak line -->
    <path d="M38,90 L15,90" fill="none" stroke="#C07828" stroke-width="0.8"/>

    <!-- Legs -->
    <g stroke="#E8A040" stroke-width="2.5" fill="none" stroke-linecap="round">
      <path d="M95,345 L85,395"/>
      <path d="M140,345 L150,395"/>
    </g>
    <!-- Feet -->
    <g fill="#E8A040" stroke="#C07828" stroke-width="1">
      <path d="M85,395 L70,405 L85,400 L80,410 L88,400 L95,408 L90,398 Z"/>
      <path d="M150,395 L135,405 L150,400 L145,410 L153,400 L160,408 L155,398 Z"/>
    </g>

    <!-- Wing detail -->
    <path d="M80,240 Q120,230 165,245 Q180,250 190,260" fill="none" stroke="#A89880" stroke-width="1.2"/>
    <path d="M75,255 Q115,245 160,258 Q175,263 185,272" fill="none" stroke="#A89880" stroke-width="1"/>
    <!-- Wing feather tips -->
    <g stroke="#8B7D65" stroke-width="0.8" fill="none" opacity="0.4">
      <path d="M170,248 L180,242"/>
      <path d="M175,252 L185,246"/>
      <path d="M178,258 L188,252"/>
    </g>
  </g>

  <!-- === WHITE GOOSE (center-right, RDS Goose) === -->
  <g filter="url(#softShadow)" transform="translate(550, 200)">
    <!-- Body -->
    <ellipse cx="100" cy="260" rx="85" ry="62" fill="#FAFAF5" stroke="#7A7060" stroke-width="1.8"/>

    <!-- Body feather texture -->
    <g stroke="#DDD8CC" stroke-width="0.7" fill="none" opacity="0.6">
      <path d="M40,245 Q65,240 90,245"/>
      <path d="M35,260 Q65,255 95,260"/>
      <path d="M40,275 Q70,270 100,275"/>
      <path d="M45,290 Q75,285 105,290"/>
      <path d="M110,248 Q135,245 155,250"/>
      <path d="M105,263 Q135,258 160,263"/>
      <path d="M100,278 Q130,273 160,278"/>
      <path d="M95,293 Q125,288 155,293"/>
    </g>

    <!-- Tail -->
    <path d="M180,240 Q210,225 225,205 Q215,230 208,240 Q220,220 232,200 Q218,238 210,248" fill="#F0EDE5" stroke="#7A7060" stroke-width="1.2"/>
    <g stroke="#A89880" stroke-width="0.5" fill="none" opacity="0.4">
      <path d="M185,238 Q200,228 215,215"/>
      <path d="M190,242 Q205,232 220,220"/>
    </g>

    <!-- Neck -->
    <path d="M30,245 Q15,200 20,155 Q22,130 32,108 Q35,100 42,92" fill="none" stroke="#7A7060" stroke-width="2" stroke-linecap="round"/>
    <path d="M55,252 Q42,210 45,160 Q47,135 55,115 Q57,107 62,100" fill="none" stroke="#7A7060" stroke-width="2" stroke-linecap="round"/>
    <path d="M30,245 Q15,200 20,155 Q22,130 32,108 Q35,100 42,92 L62,100 Q57,107 55,115 Q47,135 45,160 Q42,210 55,252 Z" fill="#FAFAF5"/>
    <!-- Neck texture -->
    <g stroke="#DDD8CC" stroke-width="0.5" fill="none" opacity="0.5">
      <path d="M28,225 Q38,223 50,226"/>
      <path d="M25,205 Q35,203 48,206"/>
      <path d="M23,185 Q33,183 46,186"/>
      <path d="M22,165 Q32,163 45,166"/>
      <path d="M25,145 Q35,143 47,146"/>
      <path d="M28,125 Q38,123 50,126"/>
    </g>

    <!-- Head -->
    <ellipse cx="50" cy="78" rx="20" ry="16" fill="#FAFAF5" stroke="#7A7060" stroke-width="1.8"/>

    <!-- Eye -->
    <ellipse cx="41" cy="74" rx="3.5" ry="4" fill="#1A1A1A"/>
    <ellipse cx="40" cy="73" rx="1" ry="1.3" fill="#fff"/>

    <!-- Beak -->
    <path d="M28,82 Q20,78 12,80 Q8,81 5,84 Q8,86 12,87 Q20,89 28,86" fill="#F0A030" stroke="#C88020" stroke-width="1"/>
    <ellipse cx="18" cy="82" rx="1.8" ry="0.8" fill="#C88020" opacity="0.5"/>
    <path d="M28,84 L5,84" fill="none" stroke="#C88020" stroke-width="0.7"/>

    <!-- Legs -->
    <g stroke="#F0A030" stroke-width="2.2" fill="none" stroke-linecap="round">
      <path d="M75,318 L68,365"/>
      <path d="M118,318 L128,365"/>
    </g>
    <!-- Feet -->
    <g fill="#F0A030" stroke="#C88020" stroke-width="0.8">
      <path d="M68,365 L55,374 L68,370 L64,378 L71,370 L78,376 L72,367 Z"/>
      <path d="M128,365 L115,374 L128,370 L124,378 L131,370 L138,376 L132,367 Z"/>
    </g>

    <!-- Wing -->
    <path d="M65,225 Q100,218 140,230 Q155,235 168,242" fill="none" stroke="#A89880" stroke-width="1"/>
    <path d="M60,240 Q95,233 135,244 Q150,248 163,255" fill="none" stroke="#A89880" stroke-width="0.8"/>
  </g>

  <!-- === SMALL DUCK (far right, Clean Cycle Down) === -->
  <g filter="url(#softShadow)" transform="translate(850, 260)">
    <!-- Body -->
    <ellipse cx="70" cy="200" rx="60" ry="45" fill="#E8E0D2" stroke="#6B5E4A" stroke-width="1.5"/>

    <!-- Body feather texture -->
    <g stroke="#C0B498" stroke-width="0.6" fill="none" opacity="0.5">
      <path d="M28,190 Q50,186 72,190"/>
      <path d="M25,202 Q50,198 78,202"/>
      <path d="M28,214 Q55,210 82,214"/>
      <path d="M80,192 Q100,189 118,194"/>
      <path d="M78,204 Q98,200 120,204"/>
      <path d="M75,216 Q95,212 115,216"/>
    </g>

    <!-- Head pattern - darker cap -->
    <path d="M30,110 Q35,95 48,88 Q60,84 68,88 Q78,95 80,110" fill="#5C5040" stroke="#4A3F32" stroke-width="1"/>

    <!-- Tail -->
    <path d="M128,185 Q150,172 160,158 Q152,178 148,185 Q158,170 165,155 Q155,182 148,190" fill="#D8CFC0" stroke="#6B5E4A" stroke-width="1"/>

    <!-- Neck -->
    <path d="M22,192 Q12,160 15,130 Q16,115 22,105" fill="none" stroke="#6B5E4A" stroke-width="1.8" stroke-linecap="round"/>
    <path d="M42,196 Q34,165 36,135 Q37,120 42,112" fill="none" stroke="#6B5E4A" stroke-width="1.8" stroke-linecap="round"/>
    <path d="M22,192 Q12,160 15,130 Q16,115 22,105 L42,112 Q37,120 36,135 Q34,165 42,196 Z" fill="#E8E0D2"/>

    <!-- Neck ring (white) -->
    <path d="M18,125 Q25,122 40,125" fill="none" stroke="#F2EDE4" stroke-width="3" opacity="0.8"/>

    <!-- Head -->
    <ellipse cx="35" cy="100" rx="18" ry="14" fill="#5C5040" stroke="#4A3F32" stroke-width="1.5"/>

    <!-- Cheek patch -->
    <ellipse cx="28" cy="102" rx="6" ry="5" fill="#6B7848" opacity="0.6"/>

    <!-- Eye -->
    <ellipse cx="27" cy="97" rx="3" ry="3.5" fill="#1A1A1A"/>
    <ellipse cx="26.5" cy="96.5" rx="0.8" ry="1" fill="#fff"/>

    <!-- Beak -->
    <path d="M16,104 Q10,100 4,102 Q1,103 -1,105 Q1,107 4,108 Q10,109 16,107" fill="#8B9040" stroke="#6B7030" stroke-width="0.8"/>
    <path d="M16,106 L-1,105.5" fill="none" stroke="#6B7030" stroke-width="0.6"/>

    <!-- Legs -->
    <g stroke="#E0902C" stroke-width="1.8" fill="none" stroke-linecap="round">
      <path d="M55,242 L48,280"/>
      <path d="M88,242 L95,280"/>
    </g>
    <!-- Feet -->
    <g fill="#E0902C" stroke="#C07020" stroke-width="0.7">
      <path d="M48,280 L38,287 L48,284 L45,290 L50,284 L55,288 L52,281 Z"/>
      <path d="M95,280 L85,287 L95,284 L92,290 L97,284 L102,288 L99,281 Z"/>
    </g>

    <!-- Wing -->
    <path d="M45,178 Q70,174 100,182 Q112,186 122,192" fill="none" stroke="#A89880" stroke-width="0.9"/>
  </g>

  <!-- === GOSLING (small baby, between mother and white goose) === -->
  <g filter="url(#softShadow)" transform="translate(460, 330)">
    <!-- Body - fluffy -->
    <ellipse cx="35" cy="120" rx="28" ry="22" fill="#F5E8A0" stroke="#A09040" stroke-width="1.2"/>

    <!-- Fluffy texture -->
    <g stroke="#D8C870" stroke-width="0.5" fill="none" opacity="0.5">
      <path d="M15,112 Q25,110 35,112"/>
      <path d="M12,120 Q25,118 40,120"/>
      <path d="M15,128 Q28,126 42,128"/>
      <path d="M38,114 Q48,112 55,116"/>
      <path d="M36,122 Q46,120 58,124"/>
    </g>

    <!-- Neck -->
    <path d="M18,112 Q14,95 16,78 Q17,72 20,68" fill="none" stroke="#A09040" stroke-width="1.2"/>
    <path d="M30,114 Q27,97 28,82 Q29,76 32,72" fill="none" stroke="#A09040" stroke-width="1.2"/>
    <path d="M18,112 Q14,95 16,78 Q17,72 20,68 L32,72 Q29,76 28,82 Q27,97 30,114 Z" fill="#F5E8A0"/>

    <!-- Head -->
    <ellipse cx="25" cy="62" rx="12" ry="10" fill="#F5E8A0" stroke="#A09040" stroke-width="1.2"/>

    <!-- Eye -->
    <ellipse cx="20" cy="60" rx="2.2" ry="2.5" fill="#1A1A1A"/>
    <ellipse cx="19.5" cy="59.5" rx="0.6" ry="0.8" fill="#fff"/>

    <!-- Beak -->
    <path d="M13,65 Q8,62 4,63 Q2,64 1,66 Q2,67 4,68 Q8,68 13,67" fill="#E8A040" stroke="#C07828" stroke-width="0.6"/>

    <!-- Legs -->
    <g stroke="#E0902C" stroke-width="1.2" fill="none" stroke-linecap="round">
      <path d="M28,140 L25,160"/>
      <path d="M42,140 L45,160"/>
    </g>
    <!-- Tiny feet -->
    <g fill="#E0902C" stroke="#C07020" stroke-width="0.5">
      <path d="M25,160 L20,164 L25,162 L23,166 L27,162 L30,165 L28,161 Z"/>
      <path d="M45,160 L40,164 L45,162 L43,166 L47,162 L50,165 L48,161 Z"/>
    </g>
  </g>

  <!-- Subtle distant hills -->
  <path d="M0,520 Q150,480 300,505 Q450,475 600,500 Q750,470 900,495 Q1050,478 1200,510 L1200,600 L0,600 Z" fill="#D4C9A8" opacity="0.3"/>

  <!-- Brand text watermark -->
  <text x="1160" y="580" font-family="'DM Sans', sans-serif" font-size="11" fill="#A89880" opacity="0.3" text-anchor="end" letter-spacing="0.2em">OMOTESANDO FUTONTEN</text>
</svg>